<?xml version="1.0" encoding="UTF-8"?>
<svg width="52px" height="48px" viewBox="0 0 52 48" version="1.1" xmlns="http://www.w3.org/2000/svg" xmlns:xlink="http://www.w3.org/1999/xlink">
    <title>Shape</title>
    <g id="MVP" stroke="none" stroke-width="1" fill="none" fill-rule="evenodd">
        <g id="Registro-2/3" transform="translate(-179.000000, -263.000000)" fill="#B7AC9A" fill-rule="nonzero">
            <path d="M186.098361,270.344262 L186.098361,263.704918 L190.52459,263.704918 L190.52459,270.344262 L197.163934,270.344262 L197.163934,274.770492 L190.52459,274.770492 L190.52459,281.409836 L186.098361,281.409836 L186.098361,274.770492 L179.459016,274.770492 L179.459016,270.344262 L186.098361,270.344262 Z M192.737705,283.622951 L192.737705,276.983607 L199.377049,276.983607 L199.377049,270.344262 L214.868852,270.344262 L218.918852,274.770492 L225.934426,274.770492 C228.368852,274.770492 230.360656,276.762295 230.360656,279.196721 L230.360656,305.754098 C230.360656,308.188525 228.368852,310.180328 225.934426,310.180328 L190.52459,310.180328 C188.090164,310.180328 186.098361,308.188525 186.098361,305.754098 L186.098361,283.622951 L192.737705,283.622951 Z M208.229508,303.540984 C214.337705,303.540984 219.295082,298.583607 219.295082,292.47541 C219.295082,286.367213 214.337705,281.409836 208.229508,281.409836 C202.121311,281.409836 197.163934,286.367213 197.163934,292.47541 C197.163934,298.583607 202.121311,303.540984 208.229508,303.540984 Z M201.147541,292.47541 C201.147541,296.392623 204.312295,299.557377 208.229508,299.557377 C212.146721,299.557377 215.311475,296.392623 215.311475,292.47541 C215.311475,288.558197 212.146721,285.393443 208.229508,285.393443 C204.312295,285.393443 201.147541,288.558197 201.147541,292.47541 Z" id="Shape"></path>
        </g>
    </g>
</svg>