<?xml version="1.0" encoding="UTF-8"?>
<svg width="16px" height="14px" viewBox="0 0 16 14" version="1.1" xmlns="http://www.w3.org/2000/svg" xmlns:xlink="http://www.w3.org/1999/xlink">
    <title>Path</title>
    <g id="Page-1" stroke="none" stroke-width="1" fill="none" fill-rule="evenodd">
        <g id="Registro-1/3" transform="translate(-31.000000, -41.000000)" fill="#FFFFFF" fill-rule="nonzero">
            <path d="M46,47 L34.14,47 L37.77,42.64 C38.1234622,42.2147407 38.0652593,41.5834622 37.64,41.23 C37.2147407,40.8765378 36.5834622,40.9347407 36.23,41.36 L31.23,47.36 C31.1963607,47.4077243 31.1662794,47.4578597 31.14,47.51 C31.14,47.56 31.14,47.59 31.07,47.64 C31.0246735,47.7546587 31.0009411,47.8767108 31,48 C31.0009411,48.1232892 31.0246735,48.2453413 31.07,48.36 C31.07,48.41 31.07,48.44 31.14,48.49 C31.1662794,48.5421403 31.1963607,48.5922757 31.23,48.64 L36.23,54.64 C36.4203565,54.8685401 36.7025678,55.000483 37,55.0000019 C37.2336522,55.0004565 37.4600879,54.9190812 37.64,54.77 C37.8445071,54.6004518 37.9731478,54.3564992 37.9975369,54.0919715 C38.021926,53.8274438 37.9400589,53.5640826 37.77,53.36 L34.14,49 L46,49 C46.5522847,49 47,48.5522847 47,48 C47,47.4477153 46.5522847,47 46,47 Z" id="Path"></path>
        </g>
    </g>
</svg>