<?xml version="1.0" encoding="UTF-8"?>
<svg width="22px" height="22px" viewBox="0 0 22 22" version="1.1" xmlns="http://www.w3.org/2000/svg" xmlns:xlink="http://www.w3.org/1999/xlink">
    <title>Combined Shape</title>
    <g id="Symbols" stroke="none" stroke-width="1" fill="none" fill-rule="evenodd">
        <g id="Group" fill="#F97350" fill-rule="nonzero">
            <path d="M15.0772372,0 C15.943746,0 16.7583486,0.342066863 17.3710407,0.963171077 C18.1098463,1.71212022 18.4361514,2.75164979 18.2882528,3.76521834 C18.4428975,3.74248067 18.5996047,3.73106828 18.7579018,3.73106828 C19.6243677,3.73106828 20.4388414,4.07304802 21.0514476,4.69406512 C22.3161913,5.97621692 22.3161913,8.06241969 21.0514046,9.34465861 C20.4387554,9.96571926 19.6241099,10.3077861 18.757644,10.3077861 C17.9839048,10.3077861 17.2514586,10.0350212 16.6672547,9.53435696 L16.6672547,9.53435696 L9.53726945,16.7622346 C9.95312152,17.3328542 10.1747546,18.0222585 10.1680085,18.7431994 C10.1598874,19.6095394 9.82253933,20.4241315 9.21809719,21.0368725 C8.60540504,21.6579767 7.79075951,22 6.92429361,22 C6.05774177,22 5.24318218,21.6579767 4.63049003,21.0368725 C3.89168444,20.2879233 3.56533638,19.2483938 3.71327797,18.2348252 C3.55863325,18.2575629 3.40192603,18.2689753 3.24362896,18.2689753 C2.37720603,18.2689753 1.56273238,17.9269955 0.95012616,17.3059784 C0.337476974,16.6848742 0,15.8590874 0,14.9806817 C0,14.1022759 0.337476974,13.2764892 0.95012616,12.655385 C1.56273238,12.0343243 2.37729196,11.692301 3.2437149,11.692301 C3.94328997,11.692301 4.6124861,11.9169335 5.16682662,12.3318741 L5.16682662,12.3318741 L12.3424018,5.05769356 C11.9845576,4.49034085 11.8065808,3.82280301 11.836659,3.14054231 C11.8729246,2.3185887 12.2091126,1.54529021 12.7834336,0.963127518 C13.3961257,0.342066863 14.2107283,0 15.0772372,0 Z M15.0772372,0.871131439 C14.4403536,0.871131439 13.8415403,1.12255254 13.3911413,1.57913536 C12.51707,2.46520745 12.4507691,3.86082979 13.2368833,4.82539475 C13.3779929,4.99854078 13.3661335,5.25205271 13.2094692,5.41086791 L13.2094692,5.41086791 L5.49601062,13.2301862 C5.33058073,13.397931 5.06322884,13.400588 4.89453332,13.2364151 C4.44873199,12.8024393 3.86246565,12.563476 3.2437149,12.563476 C2.60687428,12.563476 2.00814698,12.8148535 1.55783393,13.2713928 C1.10743495,13.7279756 0.859419018,14.3350103 0.859419018,14.9806381 C0.859419018,15.6263095 1.10743495,16.2333007 1.5578769,16.689927 C2.00814698,17.1463792 2.60683131,17.3977567 3.24367193,17.3977567 C3.56086763,17.3977567 3.8694266,17.3354677 4.16075508,17.2126756 C4.21407936,17.1901993 4.27011068,17.179266 4.32566934,17.179266 C4.43747417,17.179266 4.54738836,17.2234782 4.62958768,17.3068496 C4.75260736,17.4316019 4.78930272,17.6192965 4.72248623,17.7821627 C4.35007562,18.689927 4.55245868,19.7257106 5.2381978,20.4208211 C5.68855382,20.8773603 6.28732408,21.1287814 6.92425064,21.1287814 C7.56113423,21.1287814 8.15994746,20.8773603 8.61034645,20.4208211 C9.52128506,19.497332 9.5367968,17.9798759 8.6448504,17.0382664 C8.48281504,16.8672112 8.48552208,16.5961886 8.65095197,16.428531 L8.65095197,16.428531 L16.3582661,8.61544158 C16.4417544,8.53085048 16.555364,8.48485244 16.673786,8.48803223 C16.7917353,8.49125558 16.9031964,8.54352608 16.9819582,8.63256017 C17.0114778,8.66596973 17.0416419,8.69824676 17.0715052,8.72856365 C17.5219042,9.18510291 18.1207174,9.43652401 18.757644,9.43652401 C19.3945705,9.43652401 19.9933408,9.18510291 20.4437398,8.72856365 C21.3734128,7.78612654 21.3734128,6.25259719 20.4437828,5.31011652 C19.9934697,4.85366438 19.3947854,4.60228683 18.7579448,4.60228683 C18.4407491,4.60228683 18.1321471,4.66453229 17.8408187,4.78736796 C17.6801153,4.85505826 17.4949628,4.81790265 17.3719431,4.69315039 C17.2488804,4.56839813 17.2121851,4.38070347 17.2790016,4.21783731 C17.6514122,3.3100294 17.4490291,2.27428945 16.763333,1.57913536 C16.312934,1.12255254 15.7141637,0.871131439 15.0772372,0.871131439 Z M8.46217373,11.1208615 C8.62332095,10.9597128 8.88466419,10.9597128 9.04581141,11.1208615 C9.20695863,11.2820928 9.20695863,11.543356 9.04577014,11.7045047 L9.04577014,11.7045047 L7.12112349,13.6291281 C7.04057051,13.7096819 6.93492727,13.75 6.82932529,13.75 C6.72368204,13.75 6.61812132,13.7097231 6.53752708,13.6291281 C6.37637986,13.4679381 6.37637986,13.2066337 6.53752708,13.045485 L6.53752708,13.045485 Z M9.30975582,10.2160366 C9.4867056,10.0390989 9.77367689,10.0390989 9.95062667,10.2160366 C10.1275764,10.3929744 10.1275764,10.6799262 9.95058135,10.8568639 L9.95058135,10.8568639 L9.94020453,10.8672854 C9.85170699,10.9557316 9.73574937,11 9.61979176,11 C9.50383415,11 9.38787654,10.9557769 9.299379,10.8672854 C9.12242922,10.6903476 9.12242922,10.4033958 9.299379,10.2264581 L9.299379,10.2264581 Z" id="Combined-Shape"></path>
        </g>
    </g>
</svg>