<?xml version="1.0" encoding="UTF-8"?>
<svg width="38px" height="38px" viewBox="0 0 38 38" version="1.1" xmlns="http://www.w3.org/2000/svg" xmlns:xlink="http://www.w3.org/1999/xlink">
    <title>Combined Shape</title>
    <g id="Page-1" stroke="none" stroke-width="1" fill="none" fill-rule="evenodd">
        <g id="Datos-de-pago" transform="translate(-56.000000, -569.000000)" fill="#000000" fill-rule="nonzero">
            <path d="M75,569.666667 C79.8623023,569.666667 84.5254574,571.598209 87.9636243,575.036376 C91.4017913,578.474543 93.3333333,583.137698 93.3333333,588 C93.3333333,598.12522 85.1252204,606.333333 75,606.333333 C64.8747796,606.333333 56.6666667,598.12522 56.6666667,588 C56.6666667,577.87478 64.8747796,569.666667 75,569.666667 Z M75,573.333333 C66.8998237,573.333333 60.3333333,579.899824 60.3333333,588 C60.3333333,596.100176 66.8998237,602.666667 75,602.666667 C78.8898419,602.666667 82.6203659,601.121433 85.3708995,598.370899 C88.121433,595.620366 89.6666667,591.889842 89.6666667,588 C89.6666667,579.899824 83.1001763,573.333333 75,573.333333 Z M75,593.5 C76.012522,593.5 76.8333333,594.320811 76.8333333,595.333333 C76.8333333,596.345855 76.012522,597.166667 75,597.166667 C73.987478,597.166667 73.1666667,596.345855 73.1666667,595.333333 C73.1666667,594.320811 73.987478,593.5 75,593.5 Z M75,578.833333 C75.9618959,578.833333 76.7507729,579.574116 76.8272559,580.516305 L76.8333333,580.666667 L76.8333333,589.833333 C76.8333333,590.845855 76.012522,591.666667 75,591.666667 C74.0381041,591.666667 73.2492271,590.925884 73.1727441,589.983695 L73.1666667,589.833333 L73.1666667,580.666667 C73.1666667,579.654145 73.987478,578.833333 75,578.833333 Z" id="Combined-Shape"></path>
        </g>
    </g>
</svg>