<?xml version="1.0" encoding="UTF-8"?>
<svg width="28px" height="24px" viewBox="0 0 28 24" version="1.1" xmlns="http://www.w3.org/2000/svg" xmlns:xlink="http://www.w3.org/1999/xlink">
    <title>Combined Shape</title>
    <g id="Symbols" stroke="none" stroke-width="1" fill="none" fill-rule="evenodd">
        <path d="M20.05,0 C20.5746705,2.58598315e-16 21,0.425329488 21,0.95 L21,1.05 C21,1.57467051 20.5746705,2 20.05,2 L19,2 L19.0004139,4.05013583 C21.1761658,4.26882679 23.2277733,5.19618063 24.8332077,6.69880867 L25.0710678,6.92893219 C26.9464316,8.80429597 28,11.3478351 28,14 C28,19.5228475 23.5228475,24 18,24 C12.4771525,24 8,19.5228475 8,14 C8,8.85158284 11.8906597,4.61187794 16.8921975,4.06066678 L17,4.05 L17,2 L15.95,2 C15.4253295,2 15,1.57467051 15,1.05 L15,0.95 C15,0.425329488 15.4253295,-1.46418929e-17 15.95,0 L20.05,0 Z M18,6 C13.581722,6 10,9.581722 10,14 C10,18.418278 13.581722,22 18,22 C20.1217319,22 22.1565632,21.1571453 23.6568542,19.6568542 C25.1571453,18.1565632 26,16.1217319 26,14 C26,9.581722 22.418278,6 18,6 Z M7.05,18 C7.57467051,18 8,18.4253295 8,18.95 L8,19.05 C8,19.5746705 7.57467051,20 7.05,20 L3.95,20 C3.42532949,20 3,19.5746705 3,19.05 L3,18.95 C3,18.4253295 3.42532949,18 3.95,18 L7.05,18 Z M18,9 C18.5128358,9 18.9355072,9.38604019 18.9932723,9.88337887 L19,10 L19,13 L22,13 C22.5522847,13 23,13.4477153 23,14 C23,14.5128358 22.6139598,14.9355072 22.1166211,14.9932723 L22,15 L18,15 C17.4871642,15 17.0644928,14.6139598 17.0067277,14.1166211 L17,14 L17,10 C17,9.44771525 17.4477153,9 18,9 Z M6.05,13 C6.57467051,13 7,13.4253295 7,13.95 L7,14.05 C7,14.5746705 6.57467051,15 6.05,15 L0.95,15 C0.425329488,15 -1.57790999e-16,14.5746705 0,14.05 L0,13.95 C-1.75275909e-16,13.4253295 0.425329488,13 0.95,13 L6.05,13 Z M7.05,8 C7.57467051,8 8,8.42532949 8,8.95 L8,9.05 C8,9.57467051 7.57467051,10 7.05,10 L3.95,10 C3.42532949,10 3,9.57467051 3,9.05 L3,8.95 C3,8.42532949 3.42532949,8 3.95,8 L7.05,8 Z" id="Combined-Shape" fill="#F7F2E5" fill-rule="nonzero"></path>
    </g>
</svg>