<?xml version="1.0" encoding="UTF-8"?>
<svg width="35px" height="32px" viewBox="0 0 35 32" version="1.1" xmlns="http://www.w3.org/2000/svg" xmlns:xlink="http://www.w3.org/1999/xlink">
    <title>Fill 1</title>
    <g id="Symbols" stroke="none" stroke-width="1" fill="none" fill-rule="evenodd">
        <g id="bullet/perroperfil/pressed" fill="#F97350">
            <path d="M30.8271007,9.33610464 L23.0099721,10.0889717 L23.0099721,5.90926135 C23.0099721,5.6548442 22.8046634,5.44715673 22.5531603,5.44715673 C22.3016571,5.44715673 22.0963484,5.6548442 22.0963484,5.90926135 L22.0963484,12.2541136 C22.0963484,13.9831118 20.705382,15.3901944 18.9961871,15.3901944 L18.9243291,15.3901944 C17.2151342,15.3901944 15.8241678,13.9831118 15.8241678,12.2541136 L15.8241678,5.91445354 L15.8241678,4.56967716 C15.8241678,3.54681636 16.255316,2.56549306 16.9995601,1.87493221 C17.7489368,1.18437137 18.7549494,0.846879229 19.760962,0.945530778 L30.8322335,2.01512126 C31.2069218,2.05146657 31.5662121,2.14492593 31.8998387,2.29030716 C31.0118786,3.06394299 30.4832087,4.19583971 30.4832087,5.40042705 C30.4832087,6.81270186 31.1915237,8.095172 32.3361197,8.84284689 C31.8844405,9.10764842 31.3763015,9.28418277 30.8271007,9.33610464 L30.8271007,9.33610464 Z M25.9304883,24.8399744 L20.1510485,24.8399744 C19.8995454,24.8399744 19.6942367,25.0476619 19.6942367,25.302079 C19.6942367,25.5564962 19.8995454,25.7641837 20.1510485,25.7641837 L26.3308403,25.7641837 L26.3462385,25.7641837 L26.3821675,25.7641837 L26.3873002,25.7641837 C28.969057,25.7953368 31.058073,27.9241334 31.058073,30.5461877 L31.058073,31.0654064 L15.4956739,31.0654064 C13.3553307,31.0654064 11.4202962,29.9594706 10.3116293,28.1110521 C10.0190644,27.6177943 9.79835753,27.0985757 9.64950873,26.5637804 C9.64950873,26.5585882 9.64437601,26.5533961 9.64437601,26.5482039 C9.24402405,25.078815 9.39287286,23.495198 10.116586,22.0933076 C10.1217187,22.0829232 10.1268514,22.077731 10.1268514,22.0673467 L14.9002786,11.3350966 L14.9002786,12.2489214 C14.9002786,14.4919461 16.7018624,16.3144037 18.9191964,16.3144037 L18.9910544,16.3144037 C21.2083883,16.3144037 23.0099721,14.4919461 23.0099721,12.2489214 L23.0099721,11.013181 L25.9304883,10.7328029 L25.9304883,24.8399744 Z M0.913623698,16.9841958 C0.913623698,16.3299803 1.44229359,15.795185 2.08901598,15.795185 C2.73573838,15.795185 3.26440827,16.3299803 3.26440827,16.9841958 C3.26440827,21.0392937 5.38422056,24.8503588 8.81287579,26.9739632 C8.98225546,27.5347194 9.21836046,28.079899 9.53145623,28.5939255 C10.0139317,29.3987144 10.6298578,30.0788909 11.3433055,30.6136861 C5.35342426,29.0456457 0.913623698,23.5315433 0.913623698,16.9841958 L0.913623698,16.9841958 Z M32.7313389,2.79914146 C33.5371755,3.453357 34.0350491,4.43987249 34.0761109,5.47830985 L34.0761109,5.85733949 C34.0401818,6.75039562 33.6962898,7.5811455 33.0906291,8.21978448 C32.0486875,7.67460486 31.3916997,6.5998222 31.3916997,5.40042705 C31.3916997,4.36198969 31.8998387,3.39105076 32.7313389,2.79914146 L32.7313389,2.79914146 Z M34.9897346,5.46792548 L34.9897346,5.4575411 L34.9897346,5.44196454 C34.8973457,3.16778673 33.1778853,1.31417604 30.9143569,1.09091201 L19.8430855,0.0213215287 C18.580437,-0.103290954 17.3177885,0.322468363 16.3785012,1.18956356 C15.439214,2.05146657 14.9002786,3.28201484 14.9002786,4.56967716 L14.9002786,5.91445354 L14.9002786,9.08168749 L9.30048394,21.6831248 C8.65376155,22.9448262 8.40739111,24.3311401 8.5511072,25.6863009 C5.83076697,23.6665402 4.17803197,20.4214234 4.17803197,16.989388 C4.17803197,15.8263381 3.23874468,14.8761679 2.08901598,14.8761679 C0.939287286,14.8761679 0,15.8263381 0,16.989388 C0,25.2657337 6.65713448,32 14.838686,32 C14.8848805,32 14.9259422,31.9896156 14.967004,31.9792313 C15.1415164,31.9948078 15.3160287,32 15.4956739,32 L31.5148849,32 C31.766388,32 31.9716967,31.7923125 31.9716967,31.5378954 L31.9716967,30.5565721 C31.9716967,27.5866412 29.7133011,25.1359291 26.844112,24.8763197 L26.844112,10.6497279 L30.9143569,10.2551217 C33.2446106,10.0318577 35,8.07440325 35,5.71195826 L35,5.63926764 C35,5.58215359 34.9897346,5.52503953 34.9897346,5.46792548 L34.9897346,5.46792548 Z" id="Fill-1"></path>
        </g>
    </g>
</svg>