<?xml version="1.0" encoding="UTF-8"?>
<svg width="16px" height="18px" viewBox="0 0 16 18" version="1.1" xmlns="http://www.w3.org/2000/svg" xmlns:xlink="http://www.w3.org/1999/xlink">
    <title>Path</title>
    <g id="Page-1" stroke="none" stroke-width="1" fill="none" fill-rule="evenodd">
        <g id="Seguimiento-Extra-time" transform="translate(-31.000000, -596.000000)" fill="#000000" fill-rule="nonzero">
            <g id="Barra/groga" transform="translate(-24.000000, 544.000000)">
                <g id="flag" transform="translate(51.000000, 49.000000)">
                    <path d="M19.27,4.68 C18.8070092,4.34638472 18.2126928,4.25352278 17.67,4.43 C16.9641567,4.62848541 16.2331078,4.72281431 15.5,4.71 C14.4165904,4.65119349 13.3543108,4.38647206 12.37,3.93 C11.1540186,3.36763187 9.83873475,3.05155592 8.5,3 C5.61,3 4.5,4 4.3,4.14 C4.10666384,4.32949829 3.99841889,4.58928618 3.99998292,4.86 L3.99998292,20 C3.99998292,20.5522847 4.44771525,21 5,21 C5.55228475,21 6,20.5522847 6,20 L6,15.7 C6.79682811,15.3949208 7.64746711,15.255416 8.5,15.29 C9.5834096,15.3488065 10.6456892,15.6135279 11.63,16.07 C12.8459814,16.6323681 14.1612653,16.9484441 15.5,17 C16.7055111,17.0455289 17.9047317,16.8056848 19,16.3 C19.6023015,16.0170613 19.9904829,15.4153802 20,14.75 L20,6.11 C19.9992847,5.54403706 19.7279626,5.01254301 19.27,4.68 L19.27,4.68 Z" id="Path"></path>
                </g>
            </g>
        </g>
    </g>
</svg>