<?xml version="1.0" encoding="UTF-8"?>
<svg width="55px" height="48px" viewBox="0 0 55 48" version="1.1" xmlns="http://www.w3.org/2000/svg" xmlns:xlink="http://www.w3.org/1999/xlink">
    <title>Combined Shape</title>
    <g id="MVP" stroke="none" stroke-width="1" fill="none" fill-rule="evenodd">
        <g id="home" transform="translate(-229.000000, -554.000000)" fill="#000000">
            <path d="M255.53089,577 L255.830151,577.001701 C263.607885,577.114089 268.408673,581.633015 270.160021,585.46613 C270.242356,585.647539 270.396353,585.858569 270.557003,586.082354 C270.744266,586.340295 270.930698,586.603196 271.08719,586.884805 C274.205241,592.496579 273.429436,598.987477 269.356771,601.353305 C268.61853,601.782167 267.836071,602 267.028802,602 C265.147713,602 263.413968,600.832321 261.57779,599.594914 C260.380053,598.789061 259.141704,597.954155 257.731615,597.317664 C257.533679,597.247793 256.607204,597.130444 255.317152,597.130444 C254.232245,597.130444 253.568853,597.213779 253.406956,597.268344 C251.962492,597.881024 250.662045,598.699632 249.403042,599.493013 C247.422847,600.737932 245.714052,601.81278 243.847656,601.81278 C242.942527,601.81278 242.079813,601.548178 241.280306,601.023084 C239.301497,599.7219 238.13869,597.440966 238.011722,594.601206 C237.890577,591.926416 238.711707,589.042155 240.322227,586.480462 C240.475808,586.235418 240.655448,586.009932 240.837028,585.789549 C240.99047,585.601478 241.135319,585.423613 241.201159,585.286564 C243.107613,581.279693 247.872639,577 255.53089,577 L255.53089,577 Z M277.999326,571 C281.364506,571 284,574.514459 284,579.000814 C284,583.48527 281.362889,587 277.999326,587 C274.635494,587 272,583.48527 272,579.000814 C272,574.514323 274.633877,571 277.999326,571 Z M235.00027,571 C238.364388,571 241,574.514459 241,579.000814 C241,583.48527 238.364523,587 235.00027,587 C231.636017,587 229,583.48527 229,579.000814 C229,574.514459 231.636017,571 235.00027,571 Z M246.999575,554 C251.411362,554 255,558.935078 255,565.000508 C255,571.066372 251.411503,576 246.999575,576 C242.588921,576 239,571.066372 239,565.000508 C239,558.934933 242.588921,554 246.999575,554 Z M264.000849,554 C268.410654,554 272,558.935078 272,565.000508 C272,571.066372 268.410654,576 264.000849,576 C259.588497,576 256,571.066372 256,565.000508 C256,558.934933 259.588497,554 264.000849,554 Z" id="Combined-Shape"></path>
        </g>
    </g>
</svg>