<?xml version="1.0" encoding="UTF-8"?>
<svg width="152px" height="26px" viewBox="0 0 152 26" version="1.1" xmlns="http://www.w3.org/2000/svg" xmlns:xlink="http://www.w3.org/1999/xlink">
    <title>Combined Shape</title>
    <g id="Page-1" stroke="none" stroke-width="1" fill="none" fill-rule="evenodd">
        <g id="home-copy-2" transform="translate(-28.000000, -15.000000)" fill="#F97350">
            <path d="M172.534578,24.0806016 L172.534578,32.5673563 C172.534578,33.7840657 172.398104,34.884048 172.125844,35.8652432 C171.852895,36.847125 171.433132,37.680008 170.865867,38.3645787 C170.298602,39.0491495 169.57832,39.5764818 168.70571,39.9458891 C167.8331,40.3152964 166.797135,40.5 165.596435,40.5 C165.247667,40.5 164.876842,40.4821476 164.483961,40.4457562 C164.09108,40.4093648 163.676831,40.3551209 163.240526,40.2830247 L163.589294,36.9576725 C164.316469,37.044188 164.825836,37.0874457 165.116706,37.0874457 C165.677079,37.0874457 166.134751,36.9974971 166.491101,36.8162266 C166.847451,36.6349561 167.134875,36.3870825 167.353372,36.071919 C167.571179,35.7567556 167.738671,35.3839151 167.854467,34.9527111 C167.970953,34.521507 168.069518,34.0525383 168.149473,33.5451183 C167.283756,34.7769336 165.945892,35.3928413 164.135192,35.3928413 C163.41491,35.3928413 162.727713,35.2513954 162.0736,34.9685036 C161.418798,34.6862984 160.843951,34.2935457 160.349748,33.7895588 C159.854856,33.2862585 159.462664,32.6902631 159.171794,32.0022592 C158.880924,31.3142553 158.735489,30.5644547 158.735489,29.7528573 C158.735489,28.9048684 158.886438,28.1337822 159.188336,27.4382254 C159.489545,26.7426686 159.890008,26.1452999 160.388347,25.6454328 C160.885996,25.1455657 161.458776,24.7596793 162.105996,24.4877735 C162.753216,24.2158678 163.422492,24.0806016 164.113136,24.0806016 C164.571497,24.0806016 165.002288,24.1417117 165.406198,24.2653052 C165.809418,24.3882121 166.171282,24.5639895 166.491101,24.7919509 C166.811609,25.0205989 167.085937,25.2938779 167.314773,25.6124745 C167.544298,25.9317578 167.713168,26.2860592 167.822072,26.6774386 L167.822072,24.0806016 L172.534578,24.0806016 Z M50.0509275,15.5 C52.3410667,15.5 54.5544973,16.4042483 56.1247991,17.9801763 C57.5933786,19.4553247 58.3927039,21.3795517 58.3771399,23.3984673 C58.3554614,26.1023523 57.0113942,27.9700983 55.5155776,29.8018517 C55.4655503,29.8638699 55.2015172,30.1783911 54.8579964,30.5887082 C54.2648948,31.2958271 53.428327,32.2942102 53.0559014,32.7466111 C52.7757485,33.088819 52.509492,33.4188447 52.2537968,33.7416718 C54.1120336,36.2561797 57.1992746,37.9362098 60.2042485,37.9362098 C65.434326,37.9362098 69.692762,33.7073403 69.7144405,28.5022371 C69.716664,27.8953442 70.1229969,27.3371799 70.7183219,27.2103748 C71.5504429,27.0331798 72.287512,27.6638832 72.287512,28.4623682 C72.287512,35.0994285 66.8667747,40.5 60.2042485,40.5 C56.6727506,40.5 53.3572915,38.9769135 51.0513293,36.3091409 L50.8241274,36.0385621 L50.1965626,35.2688713 L50.1488977,35.2623649 L50.1488977,35.2623649 L50.1020666,35.2550279 L49.4628287,36.0385621 C47.151011,38.8736821 43.732478,40.5 40.0832635,40.5 C33.4201814,40.5 28,35.0994285 28,28.4623682 C28,27.6638832 28.7370691,27.0331798 29.56919,27.2103748 C30.1650709,27.3377337 30.570848,27.8953442 30.5736273,28.5022371 C30.5953058,33.707894 34.8526301,37.9362098 40.0832635,37.9362098 C43.0532183,37.9362098 46.1048843,36.2024674 47.9269902,33.8446664 C47.4856381,33.2870559 47.0487329,32.7438425 47.0420626,32.7355365 C47.0342806,32.7266767 46.7808089,32.4121556 46.4889829,32.0677328 C46.1954893,31.7161115 45.9192274,31.3894082 45.6551944,31.077102 C43.3600524,28.3632498 41.7013691,26.4024763 41.7263828,23.2794144 C41.7614019,18.9896341 45.4956628,15.5 50.0509275,15.5 Z M177.137974,31.2416098 C177.472267,31.2416098 177.792086,31.2999734 178.097431,31.4153274 C178.403464,31.5313679 178.670899,31.6906663 178.899735,31.8939089 C179.128571,32.096465 179.310537,32.3340392 179.444944,32.6052583 C179.579351,32.877164 179.646899,33.168982 179.646899,33.4800257 C179.646899,33.8061752 179.575905,34.1089794 179.433916,34.3877514 C179.291927,34.6665234 179.105136,34.9054709 178.872165,35.1045938 C178.639193,35.3037167 178.372448,35.4595818 178.070549,35.5721892 C177.768651,35.68411 177.457793,35.7404138 177.137974,35.7404138 C176.788516,35.7404138 176.459737,35.6827368 176.150946,35.5666962 C175.841466,35.4506556 175.572652,35.2892974 175.343816,35.0826216 C175.114291,34.8766324 174.934393,34.6376849 174.803432,34.3657792 C174.672472,34.0938735 174.606992,33.7986223 174.606992,33.4800257 C174.606992,33.1470098 174.676608,32.8428325 174.814461,32.5674936 C174.952314,32.2921547 175.139794,32.0566404 175.376212,31.8609507 C175.61263,31.6652609 175.883511,31.5135155 176.188855,31.4043413 C176.4942,31.2958536 176.810573,31.2416098 177.137974,31.2416098 Z M101.423709,24.0799836 C102.281844,24.0799836 103.034521,24.2234894 103.681741,24.5098144 C104.328961,24.7961394 104.868656,25.1868322 105.301515,25.6832661 C105.734373,26.1797001 106.057639,26.7592164 106.272689,27.4218149 C106.487051,28.0844135 106.594576,28.7930163 106.594576,29.5462501 C106.594576,29.6478714 106.590441,29.745373 106.583548,29.8394414 C106.575966,29.9341964 106.564938,30.024145 106.550463,30.1113471 L99.8528733,30.9806215 C100.027257,31.5024608 100.318127,31.8773611 100.725483,32.1053225 C101.132839,32.3339705 101.65668,32.4479512 102.296318,32.4479512 C103.314363,32.4479512 104.412363,32.1870315 105.591006,31.6651923 L106.136215,34.6534088 C104.783877,35.2624502 103.263357,35.5666275 101.576726,35.5666275 C100.638636,35.5666275 99.781879,35.4231217 99.0078342,35.1374834 C98.2331001,34.8511584 97.56727,34.4529126 97.0110329,33.9420594 C96.4547959,33.4312063 96.0219374,32.8242248 95.7131466,32.1218016 C95.4043558,31.4193785 95.2492711,30.654472 95.2492711,29.8291419 C95.2492711,28.9591809 95.4112484,28.1716156 95.7352031,27.4650726 C96.0584684,26.7592164 96.5002874,26.1542948 97.06066,25.6503079 C97.6203434,25.1470076 98.274456,24.7597479 99.0236873,24.4878422 C99.7729186,24.2159365 100.573155,24.0799836 101.423709,24.0799836 Z M113.630595,20.026803 L113.630595,24.2434017 L116.205001,24.2434017 L116.205001,27.0036569 L113.630595,27.0036569 L113.630595,30.7849318 C113.630595,31.1763112 113.75742,31.4695025 114.012448,31.6651923 C114.266787,31.860882 114.612109,31.9590702 115.048414,31.9590702 C115.390289,31.9590702 115.732165,31.8718681 116.07404,31.6981505 L116.248424,34.8058408 C115.237272,35.3132608 114.117216,35.5666275 112.888946,35.5666275 C112.2562,35.5666275 111.692382,35.4636329 111.197489,35.2569571 C110.703286,35.0502813 110.28697,34.7536569 109.948541,34.3657106 C109.610801,33.9784509 109.354394,33.5108554 109.18001,32.9636108 C109.004937,32.4170528 108.918089,31.7997719 108.918089,31.1110813 L108.939456,27.0036569 L107.521638,27.0036569 L107.521638,24.2434017 L109.288914,24.2434017 L111.361534,20.026803 L113.630595,20.026803 Z M122.742819,24.0801209 C123.447937,24.0801209 124.113767,24.1185723 124.738931,24.1941016 C125.364784,24.2703176 125.94997,24.4392288 126.495179,24.6994618 L126.01545,27.3512293 C124.924343,27.0182134 124.022784,26.8513622 123.310084,26.8513622 C122.423,26.8513622 121.979113,27.0037942 121.979113,27.3079716 C121.979113,27.4240121 122.012198,27.5270067 122.077678,27.617642 C122.143158,27.7082772 122.230006,27.7879264 122.339599,27.8565894 C122.448503,27.9252525 122.568435,27.9815562 122.699395,28.0248139 C122.830356,28.0680717 122.961316,28.0975968 123.091587,28.112016 C123.666434,28.1985315 124.199236,28.3310512 124.689993,28.5082019 C125.18075,28.6860392 125.606027,28.9236134 125.966512,29.2202379 C126.326309,29.517549 126.609597,29.8814632 126.817065,30.3126672 C127.024534,30.7438713 127.127924,31.2560977 127.127924,31.8500332 C127.127924,32.4371024 127.024534,32.960315 126.817065,33.4203575 C126.609597,33.8804 126.320795,34.2697196 125.94997,34.5883162 C125.579145,34.9075995 125.14284,35.1499801 124.641055,35.3168313 C124.13927,35.4829959 123.593372,35.5667649 123.00474,35.5667649 C122.051486,35.5667649 121.180944,35.5228205 120.391735,35.436305 C119.602527,35.349103 118.880866,35.1609662 118.226753,34.871208 L118.728538,32.3066426 C118.968403,32.3718725 119.17725,32.4295495 119.35577,32.4803601 C119.5336,32.5311708 119.681103,32.5675622 119.797589,32.5888478 C119.906493,32.61082 120.045035,32.6375986 120.211837,32.6705568 C120.379329,32.7028285 120.559227,32.7337269 120.752221,32.7625653 C120.944526,32.7920905 121.139588,32.8174958 121.335339,32.8387813 C121.53178,32.8607535 121.7103,32.8717396 121.870209,32.8717396 C122.611859,32.8717396 122.982683,32.6980221 122.982683,32.3499003 C122.961316,32.2125742 122.904796,32.0910406 122.813813,31.9859861 C122.72283,31.8809316 122.608412,31.7902964 122.46987,31.7140804 C122.332017,31.6378644 122.173486,31.5746943 121.995655,31.5238837 C121.817136,31.4737596 121.630345,31.4298153 121.433904,31.3934239 C120.866639,31.2849362 120.366233,31.1400571 119.934063,30.9587867 C119.501205,30.7782028 119.13934,30.5440618 118.848471,30.2584234 C118.557601,29.9720984 118.337725,29.6205435 118.188155,29.2037587 C118.039273,28.7876606 117.964833,28.2932865 117.964833,27.7206366 C117.993782,27.0690241 118.132324,26.5128533 118.379081,26.0528108 C118.626527,25.5927682 118.960821,25.215808 119.382651,24.9226167 C119.804481,24.6294254 120.300752,24.4151967 120.872153,24.2813037 C121.442865,24.1474107 122.06665,24.0801209 122.742819,24.0801209 Z M151.164945,24.0805329 C152.109927,24.0805329 152.975644,24.2212922 153.760717,24.504184 C154.54648,24.7863892 155.222649,25.1798286 155.789914,25.6831288 C156.357179,26.1871157 156.796931,26.7899774 157.109857,27.4924005 C157.422783,28.1955103 157.578557,28.9665965 157.578557,29.8070324 C157.578557,30.48817 157.489642,31.1040777 157.311812,31.6547555 C157.133292,32.2047466 156.892049,32.6922544 156.586015,33.1159055 C156.280671,33.5395566 155.920875,33.9075906 155.506626,34.2193209 C155.091689,34.5303646 154.644355,34.7857912 154.164627,34.9849141 C153.684898,35.1847236 153.187938,35.3309759 152.675814,35.4250443 C152.163001,35.5191127 151.652255,35.5664902 151.142888,35.5664902 C150.182742,35.5664902 149.308754,35.4271042 148.519545,35.1483322 C147.730336,34.8695601 147.052099,34.4761208 146.484834,33.9693873 C145.917569,33.4619673 145.479885,32.8549858 145.170405,32.1491295 C144.861615,31.4425866 144.707219,30.6618876 144.707219,29.8070324 C144.74375,28.8725281 144.938123,28.0506313 145.290338,27.3406552 C145.643241,26.6306791 146.110563,26.0326238 146.692303,25.547176 C147.274043,25.0617281 147.948144,24.6964406 148.715986,24.4499402 C149.483138,24.2034398 150.299228,24.0805329 151.164945,24.0805329 Z M88.9443556,20.0923762 L88.9443556,32.1104722 L94.26824,32.1104722 L94.26824,35.3925667 L84.1229456,35.3925667 L84.1229456,20.0923762 L88.9443556,20.0923762 Z M135.205836,20.0924448 C136.449271,20.0924448 137.576909,20.2785218 138.587371,20.6520488 C139.597834,21.0248893 140.462173,21.5446686 141.178319,22.211387 C141.894466,22.8781053 142.449324,23.672537 142.841516,24.5967418 C143.234397,25.52026 143.430838,26.5323536 143.430838,27.6337091 C143.430838,28.7927416 143.236465,29.8487796 142.84703,30.8011363 C142.458285,31.7541796 141.903426,32.57127 141.183833,33.251721 C140.463551,33.9328586 139.597834,34.4601909 138.587371,34.8330314 C137.576909,35.2058718 136.449271,35.3926353 135.205836,35.3926353 L128.530303,35.3926353 L128.530303,20.0924448 L135.205836,20.0924448 Z M37.3705047,31.0727828 C37.8696661,31.0727828 38.2737756,31.4759015 38.2737756,31.9726012 C38.2737756,32.4698547 37.8696661,32.8724196 37.3705047,32.8724196 C36.8713433,32.8724196 36.4672338,32.4698547 36.4672338,31.9726012 C36.4672338,31.4759015 36.8713433,31.0727828 37.3705047,31.0727828 Z M62.6921067,31.0727828 C63.1912681,31.0727828 63.5959335,31.4759015 63.5959335,31.9726012 C63.5959335,32.4698547 63.1912681,32.8724196 62.6921067,32.8724196 C62.1929453,32.8724196 61.7888358,32.4698547 61.7888358,31.9726012 C61.7888358,31.4759015 62.1929453,31.0727828 62.6921067,31.0727828 Z M151.175973,27.3839129 C150.914052,27.3839129 150.655578,27.4347236 150.401239,27.5356583 C150.146211,27.6372796 149.92151,27.7876517 149.72507,27.9867746 C149.528629,28.1858975 149.370098,28.4378909 149.250166,28.7420683 C149.130234,29.0462457 149.070268,29.4012337 149.070268,29.8070324 C149.070268,30.2128311 149.130234,30.5678192 149.250166,30.8719965 C149.370098,31.1761739 149.528629,31.4302273 149.72507,31.6327833 C149.92151,31.8353393 150.146211,31.9877713 150.401239,32.0893927 C150.655578,32.1903274 150.914052,32.241138 151.175973,32.241138 C151.437205,32.241138 151.693611,32.1903274 151.944504,32.0893927 C152.195396,31.9877713 152.420786,31.8353393 152.620673,31.6327833 C152.821249,31.4302273 152.981159,31.1761739 153.101091,30.8719965 C153.221023,30.5678192 153.280989,30.2128311 153.280989,29.8070324 C153.280989,29.4012337 153.221023,29.0462457 153.101091,28.7420683 C152.981159,28.4378909 152.821249,28.1858975 152.620673,27.9867746 C152.420786,27.7876517 152.195396,27.6372796 151.944504,27.5356583 C151.693611,27.4347236 151.437205,27.3839129 151.175973,27.3839129 Z M165.596435,27.6119429 C165.276616,27.6119429 164.980232,27.6716798 164.707972,27.7911535 C164.435023,27.9106273 164.200673,28.0719855 164.004232,28.2752281 C163.807792,28.4777842 163.653396,28.7132985 163.540357,28.9810844 C163.427317,29.249557 163.371487,29.5317622 163.371487,29.8290733 C163.371487,30.1840613 163.438345,30.4992248 163.573441,30.7745637 C163.707848,31.0499025 163.882232,31.2812971 164.097283,31.4694339 C164.311644,31.6582573 164.551509,31.8010765 164.816876,31.8992646 C165.082243,31.9967662 165.342096,32.045517 165.596435,32.045517 C165.894887,32.045517 166.176796,31.98784 166.442163,31.8717994 C166.70753,31.7557588 166.940502,31.5998937 167.140389,31.404204 C167.340276,31.2092009 167.500185,30.9826127 167.620117,30.7251263 C167.740049,30.4683264 167.807597,30.1984806 167.822072,29.9155887 L167.822072,29.7418712 C167.807597,29.4521131 167.736603,29.1788341 167.609089,28.9213476 C167.482264,28.6645477 167.316841,28.4379596 167.112818,28.2422699 C166.909485,28.0465801 166.676513,27.8927749 166.414592,27.7801674 C166.153361,27.6682467 165.880412,27.6119429 165.596435,27.6119429 Z M50.0509275,18.2731018 C47.0181607,18.2731018 44.5323591,20.5290157 44.5095689,23.3015637 C44.493449,25.314942 45.5017773,26.5924072 47.7835786,29.2902011 C48.0515026,29.6069372 48.3316556,29.9380703 48.6223698,30.286923 C48.9358743,30.6562638 49.2126921,31.0001329 49.2126921,31.0001329 C49.237834,31.0313124 49.5703627,31.4437233 49.9483965,31.9203018 L50.0437014,32.0405998 L50.0548185,32.0405998 C50.324966,31.7000532 50.6056748,31.3517542 50.9013918,30.9912731 C51.2782642,30.5327811 52.12317,29.5249845 52.7212743,28.8112209 C53.0531221,28.4158545 53.3071497,28.1124081 53.3560653,28.0526048 C54.8613315,26.2086693 55.5800572,25.0386285 55.5933979,23.3757642 C55.6034033,22.1021751 55.0903454,20.8795295 54.1481644,19.9331975 C53.0975908,18.8783335 51.6039976,18.2731018 50.0509275,18.2731018 Z M135.205836,24.0913817 L133.460617,24.0913817 L133.460617,31.3936985 L135.205836,31.3936985 C135.76552,31.3936985 136.248005,31.2742248 136.651225,31.0352773 C137.055135,30.7956432 137.387361,30.4914658 137.649281,30.1220586 C137.911202,29.7526513 138.103507,29.3434194 138.227575,28.894363 C138.350953,28.4453065 138.412987,28.0106694 138.412987,27.5904514 C138.412987,27.0830314 138.334411,26.6161225 138.178637,26.1883516 C138.022174,25.7612674 137.802298,25.3918601 137.518321,25.0801298 C137.235033,24.7683995 136.896604,24.5260189 136.503723,24.3523013 C136.111531,24.1778971 135.678672,24.0913817 135.205836,24.0913817 Z M60.1324871,28.3291951 C60.6316485,28.3291951 61.035758,28.7323137 61.035758,29.2290135 C61.035758,29.7262669 60.6316485,30.1288318 60.1324871,30.1288318 C59.6333257,30.1288318 59.2292162,29.7262669 59.2292162,29.2290135 C59.2292162,28.7323137 59.6333257,28.3291951 60.1324871,28.3291951 Z M65.1011997,28.3291951 C65.6003611,28.3291951 66.0044706,28.7323137 66.0044706,29.2290135 C66.0044706,29.7262669 65.6003611,30.1288318 65.1011997,30.1288318 C64.6020383,30.1288318 64.1979288,29.7262669 64.1979288,29.2290135 C64.1979288,28.7323137 64.6020383,28.3291951 65.1011997,28.3291951 Z M34.8109406,28.3291951 C35.310102,28.3291951 35.7142115,28.7323137 35.7142115,29.2290135 C35.7142115,29.7262669 35.310102,30.1288318 34.8109406,30.1288318 C34.3117792,30.1288318 33.9076697,29.7262669 33.9076697,29.2290135 C33.9076697,28.7323137 34.3117792,28.3291951 34.8109406,28.3291951 Z M39.7796533,28.3291951 C40.2788147,28.3291951 40.6829242,28.7323137 40.6829242,29.2290135 C40.6829242,29.7262669 40.2788147,30.1288318 39.7796533,30.1288318 C39.2804919,30.1288318 38.8763824,29.7262669 38.8763824,29.2290135 C38.8763824,28.7323137 39.2804919,28.3291951 39.7796533,28.3291951 Z M179.407035,20.0268716 L179.407035,23.4826836 L178.534425,29.7852662 L175.589195,29.7852662 L174.694528,23.4826836 L174.694528,20.0268716 L179.407035,20.0268716 Z M101.423709,26.7859949 C101.147313,26.7859949 100.899867,26.8402388 100.682059,26.949413 C100.463562,27.0579007 100.280218,27.2082728 100.131336,27.3998427 C99.9817659,27.5920993 99.8673479,27.8200607 99.7873931,28.0844135 C99.7074384,28.3494529 99.6640147,28.633718 99.6564327,28.9378954 L103.125504,28.1771086 C102.871166,27.2494706 102.3039,26.7859949 101.423709,26.7859949 Z" id="Combined-Shape"></path>
        </g>
    </g>
</svg>