<?xml version="1.0" encoding="UTF-8"?>
<svg width="14px" height="18px" viewBox="0 0 14 18" version="1.1" xmlns="http://www.w3.org/2000/svg" xmlns:xlink="http://www.w3.org/1999/xlink">
    <title>Group</title>
    <g id="Page-1" stroke="none" stroke-width="1" fill="none" fill-rule="evenodd">
        <g id="Seguimiento-Extra-time" transform="translate(-337.000000, -565.000000)" fill="#F97350" fill-rule="nonzero">
            <g id="Barra/groga" transform="translate(-24.000000, 544.000000)">
                <g id="Leyenda-Yo" transform="translate(338.000000, 0.000000)">
                    <g id="Group" transform="translate(23.000000, 21.000000)">
                        <path d="M7,8 C9.209139,8 11,6.209139 11,4 C11,1.790861 9.209139,0 7,0 C4.790861,0 3,1.790861 3,4 C3,6.209139 4.790861,8 7,8 Z" id="Path"></path>
                        <path d="M13,18.0000001 C13.5522847,18.0000001 14,17.5522847 14,17.0000001 C14,13.1340068 10.8659932,10.0000001 7,10.0000001 C3.13400679,10.0000001 0,13.1340068 0,17.0000001 C0,17.5522847 0.44771525,18.0000001 1,18.0000001 L13,18.0000001 Z" id="Path"></path>
                    </g>
                </g>
            </g>
        </g>
    </g>
</svg>